<svg xmlns="http://www.w3.org/2000/svg" width="17.348" height="20" viewBox="0 0 17.348 20">
  <path id="Icon" d="M8.639,20a3.909,3.909,0,0,1-2.785-1.175.676.676,0,0,1,0-.935H1.382A1.379,1.379,0,0,1,.056,16.9a1.3,1.3,0,0,1,.576-1.488C.8,15.256,2.324,13.7,2.324,8.829A7.2,7.2,0,0,1,4.066,4.292,6.522,6.522,0,0,1,6.194,2.618a.7.7,0,0,1,0-.122,2.5,2.5,0,1,1,4.991,0,.691.691,0,0,1,0,.122,6.535,6.535,0,0,1,2.128,1.674,7.2,7.2,0,0,1,1.742,4.537c0,4.895,1.523,6.441,1.7,6.6a1.3,1.3,0,0,1,.531,1.5,1.38,1.38,0,0,1-1.328.985H11.425a.674.674,0,0,1,0,.907A3.913,3.913,0,0,1,8.639,20ZM6.856,17.9a2.529,2.529,0,0,0,1.789.748h.027a2.491,2.491,0,0,0,1.769-.748ZM2.705,14.728a4.423,4.423,0,0,1-1.262,1.814H15.967a4.413,4.413,0,0,1-1.261-1.814Zm6-11.343c-2.856,0-4.99,2.874-4.99,5.444a17.207,17.207,0,0,1-.531,4.537H14.224a17.209,17.209,0,0,1-.531-4.537C13.693,6.259,11.559,3.385,8.7,3.385Zm0-1.362a5.22,5.22,0,0,1,1.062.109A1.25,1.25,0,0,0,8.7,1.343a1.25,1.25,0,0,0-1.062.789A5.223,5.223,0,0,1,8.7,2.023Z" fill="#9c9c9c"/>
</svg>
