<svg xmlns="http://www.w3.org/2000/svg" width="26.229" height="26.028" viewBox="0 0 26.229 26.028">
  <g id="Group_112" data-name="Group 112" transform="translate(0)">
    <path id="Path_337" data-name="Path 337" d="M110.984,124.85a6.117,6.117,0,0,1-1.32-1.32q-.144.27-.313.53l-1.188,1.835a1.535,1.535,0,1,0,.455.455l1.835-1.187C110.627,125.051,110.8,124.946,110.984,124.85Z" transform="translate(-101.471 -106.914)" fill="#fe8400"/>
    <path id="Path_338" data-name="Path 338" d="M109.664,85.277a6.11,6.11,0,0,1,1.32-1.32q-.27-.144-.53-.313l-1.835-1.188a1.536,1.536,0,1,0-.455.455l1.188,1.835Q109.52,85.007,109.664,85.277Z" transform="translate(-101.471 -75.864)" fill="#fe8400"/>
    <path id="Path_339" data-name="Path 339" d="M152.892,128.721a1.536,1.536,0,1,0-.834-2.826l-1.188-1.835c-.112-.173-.217-.35-.313-.53a6.129,6.129,0,0,1-1.32,1.32q.27.145.529.313l1.836,1.187a1.536,1.536,0,0,0,1.29,2.371Z" transform="translate(-132.521 -106.914)" fill="#fe8400"/>
    <path id="Path_340" data-name="Path 340" d="M154.428,81.622a1.536,1.536,0,1,0-2.826.834l-1.836,1.188q-.259.168-.529.313a6.123,6.123,0,0,1,1.32,1.32q.145-.27.313-.529l1.188-1.836a1.536,1.536,0,0,0,2.37-1.29Z" transform="translate(-132.521 -75.864)" fill="#fe8400"/>
    <path id="Path_341" data-name="Path 341" d="M128.186,96.88a5.6,5.6,0,1,0-5.6,5.6A5.6,5.6,0,0,0,128.186,96.88Zm-5.6,4.431a4.431,4.431,0,1,1,4.431-4.431A4.436,4.436,0,0,1,122.587,101.311Z" transform="translate(-109.473 -83.866)" fill="#fe8400"/>
    <path id="Path_342" data-name="Path 342" d="M90.863,72.526a5.921,5.921,0,0,0,.3.8,5.454,5.454,0,0,0,2.217,2.441,5.028,5.028,0,0,0,3.1.656,6.561,6.561,0,0,1-.765-.144,5.929,5.929,0,0,1-.727-.238,5.66,5.66,0,0,1-.677-.332,5.545,5.545,0,0,1-.617-.417A5.178,5.178,0,0,1,92,72.973a5.087,5.087,0,0,1-.289-1.384,5.854,5.854,0,0,1,0-.7,5.082,5.082,0,0,1,.1-.693,5.415,5.415,0,0,1,.2-.668,4.925,4.925,0,0,1,.291-.632,5.387,5.387,0,0,1,.376-.584,5.312,5.312,0,0,1,.456-.524,5.381,5.381,0,0,1,.524-.456,5.209,5.209,0,0,1,.585-.375,4.962,4.962,0,0,1,.631-.292,5.4,5.4,0,0,1,.668-.2,5.167,5.167,0,0,1,.692-.1,5.914,5.914,0,0,1,.7,0,5.088,5.088,0,0,1,1.383.289,5.182,5.182,0,0,1,2.316,1.688,5.515,5.515,0,0,1,.417.617,5.7,5.7,0,0,1,.332.677,5.884,5.884,0,0,1,.238.727,6.546,6.546,0,0,1,.145.765,5.028,5.028,0,0,0-.655-3.1A5.454,5.454,0,0,0,98.683,65.8a5.628,5.628,0,0,0-2.49-.508,6.216,6.216,0,0,0-.856.088,5.638,5.638,0,0,0-.835.218,6.063,6.063,0,0,0-.795.341,6.127,6.127,0,0,0-.733.46,6.359,6.359,0,0,0-.657.563,6.424,6.424,0,0,0-.562.657,6,6,0,0,0-.46.733,5.751,5.751,0,0,0-.558,1.629,6.26,6.26,0,0,0-.088.856,5.945,5.945,0,0,0,.043.855A5.827,5.827,0,0,0,90.863,72.526Z" transform="translate(-90.647 -65.288)" fill="#fe8400"/>
    <path id="Path_343" data-name="Path 343" d="M143.619,70.358a5.918,5.918,0,0,1,.238-.727,5.415,5.415,0,0,1,.748-1.294,5.181,5.181,0,0,1,2.317-1.689,5.1,5.1,0,0,1,1.384-.289,5.855,5.855,0,0,1,.7,0,5.081,5.081,0,0,1,.693.1,5.417,5.417,0,0,1,.668.2,4.918,4.918,0,0,1,.631.291,4.809,4.809,0,0,1,1.109.832,5.418,5.418,0,0,1,.456.524,5.21,5.21,0,0,1,.375.585,4.919,4.919,0,0,1,.291.631,5.351,5.351,0,0,1,.2.668,5.17,5.17,0,0,1,.1.692,5.974,5.974,0,0,1,0,.7,5.1,5.1,0,0,1-.289,1.383,5.182,5.182,0,0,1-1.688,2.316,5.477,5.477,0,0,1-.617.417,5.722,5.722,0,0,1-.677.332,5.93,5.93,0,0,1-.727.239,6.6,6.6,0,0,1-.765.145,5.028,5.028,0,0,0,3.1-.655,5.453,5.453,0,0,0,2.217-2.441,5.628,5.628,0,0,0,.508-2.49,6.213,6.213,0,0,0-.088-.856,5.679,5.679,0,0,0-.218-.835,6.061,6.061,0,0,0-.341-.795,6.148,6.148,0,0,0-.46-.733,6.36,6.36,0,0,0-.563-.657,6.425,6.425,0,0,0-.657-.562,5.962,5.962,0,0,0-.733-.459,5.751,5.751,0,0,0-1.629-.559,6.252,6.252,0,0,0-.855-.088,5.947,5.947,0,0,0-.855.043,5.519,5.519,0,0,0-1.634.466,5.454,5.454,0,0,0-2.441,2.217,5.028,5.028,0,0,0-.656,3.1A6.547,6.547,0,0,1,143.619,70.358Z" transform="translate(-128.378 -65.291)" fill="#fe8400"/>
    <path id="Path_344" data-name="Path 344" d="M154.39,121.311a5.925,5.925,0,0,0-.3-.8,5.454,5.454,0,0,0-2.217-2.441,5.03,5.03,0,0,0-3.1-.656,6.544,6.544,0,0,1,.765.144,5.918,5.918,0,0,1,.727.239,5.7,5.7,0,0,1,.677.331,5.613,5.613,0,0,1,.617.417,5.178,5.178,0,0,1,1.689,2.317,5.088,5.088,0,0,1,.289,1.383,5.861,5.861,0,0,1,0,.7,5.129,5.129,0,0,1-.1.693,5.412,5.412,0,0,1-.2.668,4.917,4.917,0,0,1-.291.631,4.954,4.954,0,0,1-1.356,1.565,5.168,5.168,0,0,1-.585.375,4.92,4.92,0,0,1-.631.292,5.346,5.346,0,0,1-.668.2,5.086,5.086,0,0,1-.692.1,5.976,5.976,0,0,1-.7,0,5.107,5.107,0,0,1-1.383-.289,5.181,5.181,0,0,1-2.316-1.688,5.507,5.507,0,0,1-.417-.617,5.657,5.657,0,0,1-.332-.677,5.932,5.932,0,0,1-.239-.727,6.613,6.613,0,0,1-.145-.765,5.027,5.027,0,0,0,.655,3.1,5.454,5.454,0,0,0,2.441,2.217,5.629,5.629,0,0,0,2.491.508,6.2,6.2,0,0,0,.856-.088,5.641,5.641,0,0,0,.835-.218,6.06,6.06,0,0,0,.795-.341,6.144,6.144,0,0,0,.732-.46,5.587,5.587,0,0,0,1.22-1.22,5.938,5.938,0,0,0,.459-.733,5.75,5.75,0,0,0,.558-1.629A6.213,6.213,0,0,0,154.6,123a5.693,5.693,0,0,0-.213-1.692Z" transform="translate(-128.377 -102.521)" fill="#fe8400"/>
    <path id="Path_345" data-name="Path 345" d="M101.632,123.481a5.95,5.95,0,0,1-.238.727,5.677,5.677,0,0,1-.331.677,5.549,5.549,0,0,1-.417.617,5.179,5.179,0,0,1-2.317,1.689,5.09,5.09,0,0,1-1.384.289,5.916,5.916,0,0,1-.7,0,5.17,5.17,0,0,1-.693-.1,5.4,5.4,0,0,1-.668-.2,4.907,4.907,0,0,1-.632-.292,4.947,4.947,0,0,1-1.564-1.356,5.233,5.233,0,0,1-.375-.585,4.96,4.96,0,0,1-.292-.631,5.413,5.413,0,0,1-.2-.668,5.173,5.173,0,0,1-.1-.693,5.909,5.909,0,0,1,0-.7A5.1,5.1,0,0,1,92,120.864a5.18,5.18,0,0,1,1.688-2.316,5.517,5.517,0,0,1,.617-.417,5.636,5.636,0,0,1,.677-.332,5.931,5.931,0,0,1,.727-.239,6.6,6.6,0,0,1,.765-.145,5.026,5.026,0,0,0-3.1.655,5.454,5.454,0,0,0-2.217,2.441,5.888,5.888,0,0,0-.3.8,5.948,5.948,0,0,0-.17.837,5.87,5.87,0,0,0-.043.856,6.219,6.219,0,0,0,.088.856,5.641,5.641,0,0,0,.218.835,5.592,5.592,0,0,0,.8,1.527,6.329,6.329,0,0,0,.563.657,6.427,6.427,0,0,0,.657.563,6,6,0,0,0,.733.459,5.745,5.745,0,0,0,1.629.558,6.214,6.214,0,0,0,.856.088,5.572,5.572,0,0,0,2.49-.508,5.456,5.456,0,0,0,2.441-2.217,5.028,5.028,0,0,0,.656-3.1A6.537,6.537,0,0,1,101.632,123.481Z" transform="translate(-90.644 -102.519)" fill="#fe8400"/>
    <path id="Path_346" data-name="Path 346" d="M126.84,97.232a3.9,3.9,0,1,0,3.9,3.9A3.905,3.905,0,0,0,126.84,97.232Zm0,6.634a2.733,2.733,0,1,1,2.733-2.733A2.736,2.736,0,0,1,126.84,103.866Z" transform="translate(-113.726 -88.119)" fill="#fe8400"/>
    <path id="Path_347" data-name="Path 347" d="M131.646,103.957a1.982,1.982,0,1,0,1.982,1.982A1.982,1.982,0,0,0,131.646,103.957Z" transform="translate(-118.532 -92.925)" fill="#fe8400"/>
  </g>
</svg>
