<svg xmlns="http://www.w3.org/2000/svg" width="19.25" height="13.417" viewBox="0 0 19.25 13.417">
  <g id="Icon" transform="translate(0 0)">
    <path id="Shape" d="M.875,1.75h17.5a.875.875,0,0,0,0-1.75H.875a.875.875,0,0,0,0,1.75Z" transform="translate(0 0)" fill="#9c9c9c"/>
    <path id="Shape-2" data-name="Shape" d="M18.375,0H.875a.875.875,0,0,0,0,1.75h17.5a.875.875,0,0,0,0-1.75Z" transform="translate(0 5.833)" fill="#9c9c9c"/>
    <path id="Shape-3" data-name="Shape" d="M18.375,0H.875a.875.875,0,0,0,0,1.75h17.5a.875.875,0,0,0,0-1.75Z" transform="translate(0 11.667)" fill="#9c9c9c"/>
  </g>
</svg>
