<svg xmlns="http://www.w3.org/2000/svg" width="97.374" height="104.761" viewBox="0 0 97.374 104.761">
  <g id="Group_113" data-name="Group 113" transform="translate(-57.305 -65.288)">
    <g id="Group_112" data-name="Group 112" transform="translate(82.291 65.288)">
      <path id="Path_337" data-name="Path 337" d="M119.43,127a16.068,16.068,0,0,1-3.468-3.468q-.379.708-.821,1.392l-3.12,4.821a4.033,4.033,0,1,0,1.2,1.2l4.821-3.119C118.493,127.525,118.958,127.249,119.43,127Z" transform="translate(-94.44 -79.882)" fill="#fe8400"/>
      <path id="Path_338" data-name="Path 338" d="M115.962,93.723a16.051,16.051,0,0,1,3.468-3.468q-.708-.379-1.392-.821l-4.821-3.12a4.036,4.036,0,1,0-1.2,1.2l3.12,4.821Q115.582,93.013,115.962,93.723Z" transform="translate(-94.44 -68.996)" fill="#fe8400"/>
      <path id="Path_339" data-name="Path 339" d="M158.838,137.166a4.035,4.035,0,1,0-2.192-7.423l-3.12-4.821c-.295-.456-.57-.92-.821-1.392A16.1,16.1,0,0,1,149.237,127q.708.38,1.391.821l4.822,3.119a4.035,4.035,0,0,0,3.388,6.228Z" transform="translate(-105.325 -79.882)" fill="#fe8400"/>
      <path id="Path_340" data-name="Path 340" d="M162.873,84.122a4.035,4.035,0,1,0-7.423,2.192l-4.822,3.12q-.681.442-1.391.821a16.084,16.084,0,0,1,3.468,3.468q.38-.709.821-1.391l3.12-4.822a4.035,4.035,0,0,0,6.227-3.388Z" transform="translate(-105.325 -68.996)" fill="#fe8400"/>
      <path id="Path_341" data-name="Path 341" d="M146.4,105.989A14.707,14.707,0,1,0,131.7,120.7,14.723,14.723,0,0,0,146.4,105.989ZM131.7,117.628a11.639,11.639,0,1,1,11.639-11.639A11.653,11.653,0,0,1,131.7,117.628Z" transform="translate(-97.245 -71.801)" fill="#fe8400"/>
      <path id="Path_342" data-name="Path 342" d="M91.212,84.3a15.554,15.554,0,0,0,.776,2.095,14.328,14.328,0,0,0,5.823,6.411,13.208,13.208,0,0,0,8.152,1.724,17.231,17.231,0,0,1-2.01-.379,15.575,15.575,0,0,1-1.909-.626,14.867,14.867,0,0,1-1.779-.871,14.57,14.57,0,0,1-1.62-1.094,13.6,13.6,0,0,1-4.437-6.085,13.364,13.364,0,0,1-.759-3.635,15.381,15.381,0,0,1,.013-1.85,13.349,13.349,0,0,1,.269-1.82,14.225,14.225,0,0,1,.52-1.756,12.934,12.934,0,0,1,.765-1.659A14.149,14.149,0,0,1,96,73.222a13.953,13.953,0,0,1,1.2-1.377,14.133,14.133,0,0,1,1.377-1.2,13.685,13.685,0,0,1,1.536-.986,13.031,13.031,0,0,1,1.659-.766,14.184,14.184,0,0,1,1.756-.519,13.575,13.575,0,0,1,1.819-.269,15.538,15.538,0,0,1,1.85-.011,13.365,13.365,0,0,1,3.633.759,13.612,13.612,0,0,1,6.084,4.435,14.49,14.49,0,0,1,1.094,1.62,14.977,14.977,0,0,1,.872,1.778,15.453,15.453,0,0,1,.627,1.909,17.2,17.2,0,0,1,.381,2.009,13.208,13.208,0,0,0-1.72-8.155,14.328,14.328,0,0,0-6.414-5.825,14.784,14.784,0,0,0-6.542-1.335,16.33,16.33,0,0,0-2.248.23,14.808,14.808,0,0,0-2.193.572,15.925,15.925,0,0,0-2.087.9A16.092,16.092,0,0,0,96.76,68.2a16.7,16.7,0,0,0-1.726,1.478A16.876,16.876,0,0,0,93.557,71.4a15.758,15.758,0,0,0-1.207,1.925,15.108,15.108,0,0,0-1.467,4.279,16.447,16.447,0,0,0-.23,2.248,15.616,15.616,0,0,0,.112,2.247A15.3,15.3,0,0,0,91.212,84.3Z" transform="translate(-90.645 -65.288)" fill="#fe8400"/>
      <path id="Path_343" data-name="Path 343" d="M143.911,78.6a15.547,15.547,0,0,1,.626-1.91,14.224,14.224,0,0,1,1.964-3.4,13.609,13.609,0,0,1,6.086-4.437,13.392,13.392,0,0,1,3.635-.759,15.381,15.381,0,0,1,1.85.013,13.347,13.347,0,0,1,1.82.269,14.225,14.225,0,0,1,1.756.52,12.923,12.923,0,0,1,1.659.765,12.632,12.632,0,0,1,2.912,2.186,14.235,14.235,0,0,1,1.2,1.377,13.685,13.685,0,0,1,.986,1.536,12.923,12.923,0,0,1,.765,1.659,14.058,14.058,0,0,1,.519,1.756,13.576,13.576,0,0,1,.269,1.819,15.7,15.7,0,0,1,.011,1.85,13.394,13.394,0,0,1-.759,3.633,13.612,13.612,0,0,1-4.435,6.084,14.391,14.391,0,0,1-1.62,1.094,15.032,15.032,0,0,1-1.778.872,15.578,15.578,0,0,1-1.909.627,17.349,17.349,0,0,1-2.009.38,13.209,13.209,0,0,0,8.155-1.72,14.324,14.324,0,0,0,5.825-6.414,14.785,14.785,0,0,0,1.335-6.542,16.329,16.329,0,0,0-.23-2.248,14.927,14.927,0,0,0-.572-2.193,15.925,15.925,0,0,0-.9-2.087,16.151,16.151,0,0,0-1.208-1.925,16.7,16.7,0,0,0-1.478-1.726,16.877,16.877,0,0,0-1.727-1.477,15.66,15.66,0,0,0-1.925-1.207,15.106,15.106,0,0,0-4.28-1.467,16.423,16.423,0,0,0-2.247-.23,15.618,15.618,0,0,0-2.247.112,14.5,14.5,0,0,0-4.294,1.223,14.328,14.328,0,0,0-6.411,5.823,13.208,13.208,0,0,0-1.724,8.152A17.194,17.194,0,0,1,143.911,78.6Z" transform="translate(-103.873 -65.289)" fill="#fe8400"/>
      <path id="Path_344" data-name="Path 344" d="M172.208,127.7a15.558,15.558,0,0,0-.776-2.1,14.327,14.327,0,0,0-5.823-6.411,13.213,13.213,0,0,0-8.152-1.723,17.19,17.19,0,0,1,2.009.378,15.547,15.547,0,0,1,1.91.627,14.979,14.979,0,0,1,1.779.87,14.744,14.744,0,0,1,1.62,1.094,13.6,13.6,0,0,1,4.437,6.086,13.364,13.364,0,0,1,.759,3.634,15.381,15.381,0,0,1-.012,1.85,13.473,13.473,0,0,1-.269,1.82,14.224,14.224,0,0,1-.52,1.756,12.921,12.921,0,0,1-.765,1.659,14.091,14.091,0,0,1-.988,1.536,13.946,13.946,0,0,1-1.2,1.376,14.228,14.228,0,0,1-1.377,1.2,13.575,13.575,0,0,1-1.536.986,12.929,12.929,0,0,1-1.659.766,14.055,14.055,0,0,1-1.756.519,13.356,13.356,0,0,1-1.819.269,15.7,15.7,0,0,1-1.85.012,13.415,13.415,0,0,1-3.633-.759,13.612,13.612,0,0,1-6.084-4.435,14.465,14.465,0,0,1-1.094-1.62,14.849,14.849,0,0,1-.872-1.778,15.581,15.581,0,0,1-.627-1.909,17.361,17.361,0,0,1-.38-2.01,13.205,13.205,0,0,0,1.72,8.155,14.326,14.326,0,0,0,6.413,5.825,14.789,14.789,0,0,0,6.543,1.335,16.307,16.307,0,0,0,2.248-.23,14.822,14.822,0,0,0,2.194-.573,15.922,15.922,0,0,0,2.087-.9,16.14,16.14,0,0,0,1.924-1.208,14.68,14.68,0,0,0,3.2-3.205,15.6,15.6,0,0,0,1.207-1.925,15.105,15.105,0,0,0,1.467-4.28,16.307,16.307,0,0,0,.231-2.247,14.949,14.949,0,0,0-.559-4.446Z" transform="translate(-103.873 -78.341)" fill="#fe8400"/>
      <path id="Path_345" data-name="Path 345" d="M119.508,133.407a15.632,15.632,0,0,1-.626,1.91,14.913,14.913,0,0,1-.871,1.778,14.577,14.577,0,0,1-1.094,1.621,13.605,13.605,0,0,1-6.085,4.437,13.367,13.367,0,0,1-3.635.759,15.539,15.539,0,0,1-1.85-.012,13.582,13.582,0,0,1-1.82-.269,14.186,14.186,0,0,1-1.756-.52,12.889,12.889,0,0,1-1.659-.766A12.994,12.994,0,0,1,96,138.782a13.745,13.745,0,0,1-.986-1.536,13.033,13.033,0,0,1-.766-1.659,14.219,14.219,0,0,1-.519-1.756,13.586,13.586,0,0,1-.269-1.82,15.528,15.528,0,0,1-.011-1.849,13.387,13.387,0,0,1,.759-3.633,13.608,13.608,0,0,1,4.435-6.084,14.494,14.494,0,0,1,1.62-1.095,14.8,14.8,0,0,1,1.778-.871,15.58,15.58,0,0,1,1.909-.627,17.35,17.35,0,0,1,2.009-.38,13.2,13.2,0,0,0-8.155,1.72,14.326,14.326,0,0,0-5.825,6.413,15.466,15.466,0,0,0-.777,2.1,15.625,15.625,0,0,0-.446,2.2,15.421,15.421,0,0,0-.112,2.248,16.33,16.33,0,0,0,.23,2.248,14.818,14.818,0,0,0,.572,2.194,14.689,14.689,0,0,0,2.1,4.011,16.627,16.627,0,0,0,1.478,1.726,16.888,16.888,0,0,0,1.727,1.478,15.755,15.755,0,0,0,1.925,1.207,15.092,15.092,0,0,0,4.279,1.467,16.328,16.328,0,0,0,2.248.23,14.637,14.637,0,0,0,6.54-1.335,14.332,14.332,0,0,0,6.411-5.823,13.209,13.209,0,0,0,1.724-8.153A17.176,17.176,0,0,1,119.508,133.407Z" transform="translate(-90.644 -78.341)" fill="#fe8400"/>
      <path id="Path_346" data-name="Path 346" d="M133.187,97.232a10.247,10.247,0,1,0,10.247,10.248A10.259,10.259,0,0,0,133.187,97.232Zm0,17.427a7.18,7.18,0,1,1,7.18-7.18A7.188,7.188,0,0,1,133.187,114.659Z" transform="translate(-98.736 -73.292)" fill="#fe8400"/>
      <path id="Path_347" data-name="Path 347" d="M134.872,103.957a5.208,5.208,0,1,0,5.208,5.208A5.208,5.208,0,0,0,134.872,103.957Z" transform="translate(-100.421 -74.977)" fill="#fe8400"/>
    </g>
    <text id="DRONE" transform="translate(108.679 157.037)" fill="#1d1c1d" font-size="22" font-family="Poppins-Black, Poppins" font-weight="800" letter-spacing="0.15em"><tspan x="-45.496" y="0">DRONE</tspan></text>
    <text id="PHOTOGRAPHY_SERVICES" data-name="PHOTOGRAPHY SERVICES" transform="translate(101.305 168.05)" fill="#1d1c1d" font-size="5" font-family="Poppins-Light, Poppins" font-weight="300" letter-spacing="0.3em"><tspan x="-43.842" y="0">PHOTOGRAPHY SERVICES</tspan></text>
  </g>
</svg>
