<svg xmlns="http://www.w3.org/2000/svg" xmlns:xlink="http://www.w3.org/1999/xlink" width="101" height="101" viewBox="0 0 101 101">
  <defs>
    <filter id="Rectangle_447" x="0" y="0" width="101" height="101" filterUnits="userSpaceOnUse">
      <feOffset dy="3" input="SourceAlpha"/>
      <feGaussianBlur stdDeviation="8" result="blur"/>
      <feFlood flood-opacity="0.361"/>
      <feComposite operator="in" in2="blur"/>
      <feComposite in="SourceGraphic"/>
    </filter>
  </defs>
  <g id="Group_125" data-name="Group 125" transform="translate(-113 -716)">
    <g transform="matrix(1, 0, 0, 1, 113, 716)" filter="url(#Rectangle_447)">
      <rect id="Rectangle_447-2" data-name="Rectangle 447" width="53" height="53" rx="26.5" transform="translate(24 21)" fill="#fe8400"/>
    </g>
    <g id="drone" transform="translate(151.24 751)">
      <g id="Group_122" data-name="Group 122" transform="translate(0 0)">
        <path id="Trazado_363" data-name="Trazado 363" d="M19.182,18h4.73a1.182,1.182,0,0,1,1.182,1.182v4.73a1.182,1.182,0,0,1-1.182,1.182h-4.73A1.182,1.182,0,0,1,18,23.912v-4.73A1.182,1.182,0,0,1,19.182,18Zm3.547,2.365H20.365V22.73H22.73Z" transform="translate(-9.717 -9.717)" fill="#fff"/>
        <path id="Trazado_364" data-name="Trazado 364" d="M16.321,17.5a1.179,1.179,0,0,1-.836-.346l-4.139-4.139a1.182,1.182,0,1,1,1.672-1.672l4.139,4.139a1.182,1.182,0,0,1-.836,2.019Z" transform="translate(-6.856 -6.856)" fill="#fff"/>
        <path id="Trazado_365" data-name="Trazado 365" d="M8.727,14.591a1.192,1.192,0,0,1-.169-.012,5.321,5.321,0,1,1,6.02-6.02,1.182,1.182,0,0,1-2.341.335,2.956,2.956,0,1,0-3.345,3.345,1.183,1.183,0,0,1-.166,2.353Z" transform="translate(-3.99 -3.99)" fill="#fff"/>
        <path id="Trazado_366" data-name="Trazado 366" d="M27.182,17.5a1.182,1.182,0,0,1-.836-2.019l4.139-4.139a1.182,1.182,0,1,1,1.672,1.672l-4.139,4.139A1.179,1.179,0,0,1,27.182,17.5Z" transform="translate(-12.987 -6.856)" fill="#fff"/>
        <path id="Trazado_367" data-name="Trazado 367" d="M31.943,14.591a1.183,1.183,0,0,1-.166-2.353,2.956,2.956,0,1,0-3.345-3.345,1.182,1.182,0,0,1-2.341-.335,5.321,5.321,0,1,1,6.02,6.02A1.193,1.193,0,0,1,31.943,14.591Z" transform="translate(-13.02 -3.99)" fill="#fff"/>
        <path id="Trazado_368" data-name="Trazado 368" d="M31.321,32.5a1.179,1.179,0,0,1-.836-.346l-4.139-4.139a1.182,1.182,0,0,1,1.672-1.672l4.139,4.139a1.182,1.182,0,0,1-.836,2.019Z" transform="translate(-12.987 -12.987)" fill="#fff"/>
        <path id="Trazado_369" data-name="Trazado 369" d="M31.357,36.68a5.321,5.321,0,0,1-5.266-4.568,1.182,1.182,0,0,1,2.341-.335,2.956,2.956,0,1,0,3.345-3.345,1.182,1.182,0,1,1,.335-2.341,5.321,5.321,0,0,1-.5,10.583Q31.484,36.68,31.357,36.68Z" transform="translate(-13.02 -13.02)" fill="#fff"/>
        <path id="Trazado_370" data-name="Trazado 370" d="M12.182,32.5a1.182,1.182,0,0,1-.836-2.019l4.139-4.139a1.182,1.182,0,0,1,1.672,1.672l-4.139,4.139A1.179,1.179,0,0,1,12.182,32.5Z" transform="translate(-6.856 -12.987)" fill="#fff"/>
        <path id="Trazado_371" data-name="Trazado 371" d="M9.313,36.68q-.127,0-.254-.006a5.321,5.321,0,0,1-.5-10.583,1.182,1.182,0,1,1,.335,2.341,2.956,2.956,0,1,0,3.345,3.345,1.182,1.182,0,0,1,2.341.335A5.321,5.321,0,0,1,9.313,36.68Z" transform="translate(-3.99 -13.02)" fill="#fff"/>
      </g>
    </g>
  </g>
</svg>
