<svg xmlns="http://www.w3.org/2000/svg" xmlns:xlink="http://www.w3.org/1999/xlink" width="101" height="101" viewBox="0 0 101 101">
  <defs>
    <filter id="Rectangle_449" x="0" y="0" width="101" height="101" filterUnits="userSpaceOnUse">
      <feOffset dy="3" input="SourceAlpha"/>
      <feGaussianBlur stdDeviation="8" result="blur"/>
      <feFlood flood-opacity="0.361"/>
      <feComposite operator="in" in2="blur"/>
      <feComposite in="SourceGraphic"/>
    </filter>
  </defs>
  <g id="Group_128" data-name="Group 128" transform="translate(-301 -716)">
    <g transform="matrix(1, 0, 0, 1, 301, 716)" filter="url(#Rectangle_449)">
      <rect id="Rectangle_449-2" data-name="Rectangle 449" width="53" height="53" rx="26.5" transform="translate(24 21)" fill="#fe8400"/>
    </g>
    <g id="drone-off" transform="translate(341.098 751)">
      <g id="Group_123" data-name="Group 123" transform="translate(0 0)">
        <path id="Trazado_372" data-name="Trazado 372" d="M23.912,25.095h-4.73A1.182,1.182,0,0,1,18,23.912v-4.73a1.182,1.182,0,1,1,2.365,0V22.73h3.547a1.182,1.182,0,1,1,0,2.365Z" transform="translate(-9.72 -9.723)" fill="#fff"/>
        <path id="Trazado_373" data-name="Trazado 373" d="M16.321,17.5a1.179,1.179,0,0,1-.836-.346l-4.139-4.139a1.182,1.182,0,1,1,1.672-1.672l4.139,4.139a1.182,1.182,0,0,1-.836,2.019Z" transform="translate(-6.859 -6.861)" fill="#fff"/>
        <path id="Trazado_374" data-name="Trazado 374" d="M8.73,14.633a1.192,1.192,0,0,1-.17-.012A5.321,5.321,0,0,1,5.55,5.6a1.182,1.182,0,1,1,1.674,1.67A2.956,2.956,0,0,0,8.9,12.28a1.183,1.183,0,0,1-.167,2.353ZM11.812,7.25a2.43,2.43,0,0,1-.9-.219c-.382-.154-.889-.4-1.508-.722a1.182,1.182,0,0,1,.734-2.214,6.2,6.2,0,0,1,1.615.495c.752.348,1.109.681,1.233,1.149A1.205,1.205,0,0,1,11.812,7.25Z" transform="translate(-3.996 -4.033)" fill="#fff"/>
        <path id="Trazado_375" data-name="Trazado 375" d="M27.182,17.5a1.182,1.182,0,0,1-.836-2.019l4.139-4.139a1.182,1.182,0,1,1,1.672,1.672l-4.139,4.139A1.179,1.179,0,0,1,27.182,17.5Z" transform="translate(-12.991 -6.861)" fill="#fff"/>
        <path id="Trazado_376" data-name="Trazado 376" d="M31.938,14.6a1.183,1.183,0,0,1-.168-2.353A2.956,2.956,0,1,0,28.421,8.9a1.182,1.182,0,1,1-2.341-.339,5.321,5.321,0,1,1,6.029,6.028A1.193,1.193,0,0,1,31.938,14.6Z" transform="translate(-13.018 -4.001)" fill="#fff"/>
        <path id="Trazado_377" data-name="Trazado 377" d="M31.321,32.5a1.179,1.179,0,0,1-.836-.346l-4.139-4.139a1.182,1.182,0,0,1,1.672-1.672l4.139,4.139a1.182,1.182,0,0,1-.836,2.019Z" transform="translate(-12.991 -12.993)" fill="#fff"/>
        <path id="Trazado_378" data-name="Trazado 378" d="M32.509,36.678a5.318,5.318,0,0,1-1.683-.274,4.4,4.4,0,0,1-1.116-.543,1.574,1.574,0,0,1-.769-1.66,1.537,1.537,0,0,1,1.065-1.109,4.5,4.5,0,0,1,1.227-.217,26.386,26.386,0,0,1,4.336.238,1.182,1.182,0,0,1,.7,2.012,5.322,5.322,0,0,1-3.758,1.554ZM36.6,31.891a1.183,1.183,0,0,1-1.166-1,2.951,2.951,0,0,0-2.465-2.461,1.182,1.182,0,0,1,.366-2.336,5.325,5.325,0,0,1,4.435,4.428A1.183,1.183,0,0,1,36.6,31.891Z" transform="translate(-14.18 -13.026)" fill="#fff"/>
        <path id="Trazado_379" data-name="Trazado 379" d="M12.182,32.5a1.182,1.182,0,0,1-.836-2.019l4.139-4.139a1.182,1.182,0,0,1,1.672,1.672l-4.139,4.139A1.179,1.179,0,0,1,12.182,32.5Z" transform="translate(-6.859 -12.993)" fill="#fff"/>
        <path id="Trazado_380" data-name="Trazado 380" d="M9.327,36.669q-.128,0-.256-.006a5.321,5.321,0,0,1-.509-10.581,1.182,1.182,0,0,1,.339,2.34,2.956,2.956,0,1,0,3.35,3.349,1.182,1.182,0,1,1,2.341.339,5.321,5.321,0,0,1-5.264,4.559Z" transform="translate(-3.999 -13.022)" fill="#fff"/>
        <path id="Trazado_381" data-name="Trazado 381" d="M26.467,27.649a1.179,1.179,0,0,1-.836-.346L4.346,6.019A1.182,1.182,0,1,1,6.019,4.346L27.3,25.63a1.182,1.182,0,0,1-.836,2.019Z" transform="translate(-3.998 -4)" fill="#fff"/>
      </g>
    </g>
  </g>
</svg>
