<svg xmlns="http://www.w3.org/2000/svg" width="102.647" height="18.417" viewBox="0 0 102.647 18.417">
  <path id="Path_361" data-name="Path 361" d="M-57.142-22.75a10.23,10.23,0,0,1,4.927,1.14,8,8,0,0,1,3.255,3.167,9.24,9.24,0,0,1,1.14,4.611,9.331,9.331,0,0,1-1.14,4.611,8.205,8.205,0,0,1-3.255,3.23,9.962,9.962,0,0,1-4.927,1.178h-7.473V-22.75Zm-.507,12.92a4.246,4.246,0,0,0,3.015-1.039,3.852,3.852,0,0,0,1.115-2.964A3.852,3.852,0,0,0-54.634-16.8a4.246,4.246,0,0,0-3.015-1.039h-1.343V-9.83Zm24.674,5.016-3.369-6.434h-.025v6.434h-5.624V-22.75h8.36a8.251,8.251,0,0,1,3.724.773,5.366,5.366,0,0,1,2.318,2.1,5.865,5.865,0,0,1,.773,3,5.333,5.333,0,0,1-1,3.192,5.5,5.5,0,0,1-2.875,2l3.9,6.865ZM-36.369-15h2.229a1.76,1.76,0,0,0,1.216-.367,1.483,1.483,0,0,0,.405-1.153,1.48,1.48,0,0,0-.418-1.115,1.659,1.659,0,0,0-1.2-.405h-2.229ZM-12.481-4.637a9.314,9.314,0,0,1-4.649-1.191,8.911,8.911,0,0,1-3.357-3.293,9.141,9.141,0,0,1-1.241-4.737A9.141,9.141,0,0,1-20.486-18.6a8.817,8.817,0,0,1,3.357-3.281,9.393,9.393,0,0,1,4.649-1.178,9.322,9.322,0,0,1,4.636,1.178A8.751,8.751,0,0,1-4.514-18.6a9.214,9.214,0,0,1,1.229,4.737A9.214,9.214,0,0,1-4.514-9.121,8.818,8.818,0,0,1-7.858-5.828,9.265,9.265,0,0,1-12.481-4.637Zm0-5.244A3.2,3.2,0,0,0-9.9-10.958a4.341,4.341,0,0,0,.912-2.9A4.382,4.382,0,0,0-9.9-16.784a3.2,3.2,0,0,0-2.584-1.077,3.23,3.23,0,0,0-2.609,1.077A4.382,4.382,0,0,0-16-13.858a4.341,4.341,0,0,0,.912,2.9A3.23,3.23,0,0,0-12.481-9.881ZM19.742-4.815H14.118L8.165-13.833v9.018H2.541V-22.75H8.165l5.953,9.17v-9.17h5.624ZM31.7-18.266v2.2h5.573v4.231H31.7V-9.3h6.333v4.484H26.075V-22.75H38.032v4.484Z" transform="translate(64.615 23.054)" fill="#1d1c1d"/>
</svg>
