<svg xmlns="http://www.w3.org/2000/svg" xmlns:xlink="http://www.w3.org/1999/xlink" width="101" height="101" viewBox="0 0 101 101">
  <defs>
    <filter id="Rectangle_448" x="0" y="0" width="101" height="101" filterUnits="userSpaceOnUse">
      <feOffset dy="3" input="SourceAlpha"/>
      <feGaussianBlur stdDeviation="8" result="blur"/>
      <feFlood flood-opacity="0.361"/>
      <feComposite operator="in" in2="blur"/>
      <feComposite in="SourceGraphic"/>
    </filter>
  </defs>
  <g id="Group_127" data-name="Group 127" transform="translate(-215 -716)">
    <g transform="matrix(1, 0, 0, 1, 215, 716)" filter="url(#Rectangle_448)">
      <rect id="Rectangle_448-2" data-name="Rectangle 448" width="53" height="53" rx="26.5" transform="translate(24 21)" fill="#fe8400"/>
    </g>
    <g id="drone-one" transform="translate(252.354 751)">
      <g id="Group_124" data-name="Group 124" transform="translate(0 0)">
        <path id="Trazado_382" data-name="Trazado 382" d="M24.095,15.5a1.182,1.182,0,0,1-1.182-1.182V13.139a1.774,1.774,0,1,0-3.547,0v1.182a1.182,1.182,0,1,1-2.365,0V13.139a4.139,4.139,0,0,1,8.277,0v1.182A1.182,1.182,0,0,1,24.095,15.5Z" transform="translate(-8.132 -7.226)" fill="#fff"/>
        <path id="Trazado_383" data-name="Trazado 383" d="M16.182,16H24.46a1.182,1.182,0,0,1,1.13,1.53l-1.273,4.139a1.182,1.182,0,0,1-1.13.835h-5.73a1.182,1.182,0,0,1-1.13-.835L15.052,17.53A1.182,1.182,0,0,1,16.182,16Zm6.676,2.365H17.783l.546,1.774h3.984Z" transform="translate(-7.314 -10.088)" fill="#fff"/>
        <path id="Trazado_384" data-name="Trazado 384" d="M4.182,20H8.321A1.182,1.182,0,0,1,9.5,21.182v4.139A1.182,1.182,0,0,1,8.321,26.5H4.182A1.182,1.182,0,0,1,3,25.321V21.182A1.182,1.182,0,0,1,4.182,20Zm2.956,2.365H5.365v1.774H7.139Z" transform="translate(-2.409 -11.723)" fill="#fff"/>
        <path id="Trazado_385" data-name="Trazado 385" d="M35.182,20h4.139A1.182,1.182,0,0,1,40.5,21.182v4.139A1.182,1.182,0,0,1,39.321,26.5H35.182A1.182,1.182,0,0,1,34,25.321V21.182A1.182,1.182,0,0,1,35.182,20Zm2.956,2.365H36.365v1.774h1.774Z" transform="translate(-15.081 -11.723)" fill="#fff"/>
        <path id="Trazado_386" data-name="Trazado 386" d="M10.277,8.365H3.182A1.182,1.182,0,0,1,3.182,6h7.095a1.182,1.182,0,1,1,0,2.365Z" transform="translate(-2 -6)" fill="#fff"/>
        <path id="Trazado_387" data-name="Trazado 387" d="M31.548,37.5a1.182,1.182,0,0,1-1.028-.6l-2.365-4.139A1.182,1.182,0,0,1,30.209,31.6l2.365,4.139A1.183,1.183,0,0,1,31.548,37.5Z" transform="translate(-12.628 -16.219)" fill="#fff"/>
        <path id="Trazado_388" data-name="Trazado 388" d="M13.181,37.5a1.183,1.183,0,0,1-1.026-1.769L14.521,31.6a1.182,1.182,0,0,1,2.053,1.173l-2.365,4.139A1.182,1.182,0,0,1,13.181,37.5Z" transform="translate(-6.088 -16.219)" fill="#fff"/>
        <path id="Trazado_389" data-name="Trazado 389" d="M38.277,8.365H31.182a1.182,1.182,0,1,1,0-2.365h7.095a1.182,1.182,0,1,1,0,2.365Z" transform="translate(-13.446 -6)" fill="#fff"/>
      </g>
    </g>
  </g>
</svg>
