<svg xmlns="http://www.w3.org/2000/svg" xmlns:xlink="http://www.w3.org/1999/xlink" width="101" height="101" viewBox="0 0 101 101">
  <defs>
    <filter id="Rectangle_447" x="0" y="0" width="101" height="101" filterUnits="userSpaceOnUse">
      <feOffset dy="3" input="SourceAlpha"/>
      <feGaussianBlur stdDeviation="8" result="blur"/>
      <feFlood flood-opacity="0.361"/>
      <feComposite operator="in" in2="blur"/>
      <feComposite in="SourceGraphic"/>
    </filter>
  </defs>
  <g id="Group_126" data-name="Group 126" transform="translate(-13 -716)">
    <g transform="matrix(1, 0, 0, 1, 13, 716)" filter="url(#Rectangle_447)">
      <rect id="Rectangle_447-2" data-name="Rectangle 447" width="53" height="53" rx="26.5" transform="translate(24 21)" fill="#fe8400"/>
    </g>
    <g id="drone" transform="translate(49.775 751)">
      <path id="Path_362" data-name="Path 362" d="M28.379,16.657H19.8a5.711,5.711,0,0,0-11.22,0H0C.721.215,26.328-1.263,28.379,16.657ZM3.3,18.637H8.58c1.49,5.819,9.323,6.447,11.22,0h5.28C22.411,30,7.557,31.4,3.3,18.637Zm14.519-.99a3.63,3.63,0,1,0-5.449,3.141,3.638,3.638,0,0,0,5.449-3.141Z" transform="translate(0 -3.765)" fill="#fff"/>
    </g>
  </g>
</svg>
